<?xml version="1.0" encoding="UTF-8"?>
<!DOCTYPE svg PUBLIC "-//W3C//DTD SVG 1.1//EN" "http://www.w3.org/Graphics/SVG/1.1/DTD/svg11.dtd">
<svg version="1.1" xmlns="http://www.w3.org/2000/svg" xmlns:xlink="http://www.w3.org/1999/xlink" x="0px" y="0px" width="270" height="47" viewBox="0, 0, 270, 47">
  <g id="Layer 1">
    <path d="M176.906,16.596 C176.906,16.596 169.344,41.149 187.977,40.383" fill-opacity="0" stroke="#222222" stroke-width="1.2" stroke-linejoin="bevel"/>
    <path d="M182.197,71.481 C171.555,67.141 172.19,76.841 165.391,72.961" fill-opacity="0" stroke="#222222" stroke-width="1.2" stroke-linecap="round"/>
    <g>
      <path d="M17.257,42.523 L26.112,42.523 L16.581,23.574 L25.773,11.956 L16.186,11.956 L8.234,22.333 L8.234,0.564 L0,0.564 L0,42.523 L8.234,42.523 L8.234,33.105 L10.997,29.89 z" fill="#222222"/>
      <path d="M28.932,7.783 L37.053,7.783 L37.053,0 L28.932,0 z M28.932,42.523 L37.166,42.523 L37.166,11.956 L28.932,11.956 z" fill="#222222"/>
      <path d="M70.891,42.523 L78.674,11.956 L70.778,11.956 L67.056,28.255 L63.447,11.956 L55.946,11.956 L52.167,28.311 L48.614,11.956 L40.662,11.956 L48.501,42.523 L55.833,42.523 L59.668,26.055 L63.559,42.523 z" fill="#222222"/>
      <path d="M82.227,7.783 L90.348,7.783 L90.348,0 L82.227,0 z M82.227,42.523 L90.461,42.523 L90.461,11.956 L82.227,11.956 z" fill="#222222"/>
      <path d="M115.445,42.523 L122.607,42.523 L122.607,0.564 L114.317,0.564 L114.317,13.874 Q112.963,12.746 111.187,12.069 Q109.41,11.392 107.662,11.392 Q102.361,11.392 98.808,15.791 Q95.367,20.134 95.367,26.507 Q95.367,34.007 98.582,38.463 Q101.853,43.087 107.718,43.087 Q109.918,43.087 111.723,42.27 Q113.527,41.452 115.163,40.042 z M114.317,20.416 L114.317,33.951 Q113.189,34.966 112.174,35.587 Q111.159,36.207 109.579,36.207 Q107.718,36.207 106.562,35.361 Q105.406,34.515 104.729,33.218 Q104.053,31.921 103.827,30.313 Q103.601,28.706 103.601,27.24 Q103.601,25.773 103.827,24.194 Q104.053,22.615 104.729,21.29 Q105.406,19.965 106.562,19.119 Q107.718,18.273 109.579,18.273 Q110.877,18.273 112.117,18.893 Q113.358,19.513 114.317,20.416 z" fill="#222222"/>
      <path d="M146.745,41.621 Q148.324,40.888 149.706,39.619 Q151.088,38.35 152.441,36.32 L146.35,32.485 Q145.11,34.12 143.671,35.164 Q142.233,36.207 140.09,36.207 Q138.398,36.207 137.383,35.587 Q136.368,34.966 135.776,33.951 Q135.184,32.936 134.93,31.639 Q134.676,30.342 134.507,28.988 L152.216,28.988 L152.216,25.04 Q152.216,22.051 151.172,19.626 Q150.129,17.201 148.437,15.284 Q144.94,11.392 139.583,11.392 Q136.086,11.392 133.576,12.689 Q131.067,13.986 129.431,16.158 Q127.796,18.329 127.034,21.205 Q126.273,24.082 126.273,27.24 Q126.273,30.342 127.034,33.19 Q127.796,36.038 129.375,38.237 Q130.954,40.437 133.435,41.762 Q135.917,43.087 139.357,43.087 Q143.756,43.087 146.745,41.621 z M143.079,19.288 Q144.32,20.698 144.489,23.01 L134.563,23.01 Q134.733,21.938 135.043,20.98 Q135.353,20.021 135.917,19.316 Q136.481,18.611 137.355,18.216 Q138.229,17.821 139.526,17.821 Q141.782,17.821 143.079,19.288 z" fill="#222222"/>
      <path d="M170.263,42.523 L179.061,11.956 L170.714,11.956 L166.202,30.06 L161.803,11.956 L153.513,11.956 L162.029,42.523 z" fill="#222222"/>
    </g>
    <path d="M188.305,37.028 L196.283,39.216 L187.968,46.521 L176.119,42.683 L188.305,37.028 z" fill="#222222"/>
    <path d="M188.566,37.728 L189.273,37.93 L179.237,43.08 L178.155,42.718 L188.566,37.728 z" fill="#FFFFFF"/>
    <path d="M190.215,38.08 L191.175,38.349 L181.607,43.728 L180.496,43.358 L190.215,38.08 z" fill="#FFFFFF"/>
    <path d="M191.873,38.543 L192.833,38.837 L183.827,44.489 L182.683,44.119 L191.873,38.543 z" fill="#FFFFFF"/>
    <path d="M193.446,39.097 L194.338,39.324 L186.602,45.117 L185.445,44.633 L193.446,39.097 z" fill="#FFFFFF"/>
    <path d="M188.457,37.314 L195.088,39.199 L194.338,39.883 L187.477,37.805 L188.457,37.314 z" fill="#222222"/>
    <path d="M185.635,38.543 L193.084,40.799 L192.598,41.197 L185.108,38.924 L185.635,38.543 z" fill="#222222"/>
    <path d="M178.414,42.023 L187.885,45.102 L187.043,45.898 L177.213,42.902 L178.414,42.023 z" fill="#222222"/>
    <path d="M181.104,40.649 L187.885,42.664 L187.177,43.087 L180.395,41.057 L181.104,40.649 z" fill="#222222"/>
    <path d="M183.272,39.44 L189.832,41.429 L189.155,41.817 L182.859,39.914 L183.272,39.44 z" fill="#222222"/>
    <g>
      <path d="M221.686,-47.671 C226.648,-60.885 210.773,-67.183 200.401,-63.058 C196.229,-61.537 191.09,-56.985 189.829,-54.312 C189.073,-52.604 189.366,-51.712 189.43,-48.823 C189.714,-45.593 186.763,-38.569 187.64,-35.523 C187.718,-35.254 187.698,-35.349 187.855,-35.298 C187.709,-39.125 190.345,-45.934 194.995,-48.09 C202.196,-50.792 206.381,-47.852 206.958,-44.237 C207.338,-42.603 207.345,-41.149 208.362,-40.582 C209.631,-39.875 210.695,-41.329 211.547,-41.889 C212.399,-42.448 213.078,-42.233 213.325,-42.104 C214.225,-41.634 213.95,-40.202 216.391,-40.448 C217.7,-40.58 217.755,-42.293 218.749,-43.812 C219.506,-44.969 220.919,-45.905 221.686,-47.671 z" fill="#222222"/>
      <path d="M216.904,-40.678 C216.216,-40.423 215.573,-40.44 214.973,-40.729 C215.292,-36.752 214.947,-36.198 211.449,-34.275 C210.777,-33.773 210.681,-33.281 210.682,-32.684 C212.699,-34.055 213.305,-34.215 213.847,-34.058 C213.475,-33.428 213.149,-32.625 213.114,-31.604 C214.478,-32.823 214.761,-33.97 215.435,-34.046 C215.908,-33.519 215.606,-32.683 215.984,-32.054 C216.854,-33.256 216.307,-34.399 217.226,-35.073 C216.799,-36.299 216.404,-37.19 216.904,-40.678 z" fill="#222222"/>
      <path d="M209.96,-41.222 C209.314,-40.67 208.795,-40.97 208.196,-41.259 C208.711,-36.505 208.192,-36.324 204.4,-35.564 C203.859,-35.308 203.556,-34.82 203.556,-34.223 C206.948,-35.744 206.402,-34.974 204.823,-32.873 L207.929,-34.776 C208.931,-35.433 208.518,-34.476 209.05,-33.33 C209.336,-33.882 209.665,-35.009 210.267,-35.947 C209.537,-36.996 209.46,-37.734 209.96,-41.222 z" fill="#222222"/>
    </g>
    <g>
      <path d="M228.088,30.579 C234.755,18.336 220.093,9.995 209.381,12.605 C205.091,13.52 199.44,17.268 197.84,19.708 C196.866,21.276 197.03,22.188 196.696,25.023 C196.53,28.221 192.679,34.686 193.119,37.786 C193.158,38.06 193.151,37.965 193.298,38.036 C193.68,34.272 197.194,27.975 202.038,26.504 C209.453,24.85 213.142,28.3 213.211,31.916 C213.357,33.566 213.165,34.989 214.082,35.683 C215.226,36.549 216.467,35.273 217.377,34.843 C218.287,34.412 218.922,34.715 219.146,34.876 C219.961,35.459 219.496,36.822 221.917,36.917 C223.215,36.968 223.504,35.299 224.685,33.951 C225.584,32.923 227.095,32.201 228.088,30.579 z" fill="#222222"/>
      <path d="M222.45,36.762 C221.742,36.917 221.115,36.812 220.569,36.447 C220.334,40.382 219.92,40.876 216.235,42.277 C215.509,42.675 215.347,43.143 215.266,43.727 C217.428,42.663 218.042,42.59 218.551,42.818 C218.101,43.383 217.671,44.123 217.497,45.117 C218.999,44.112 219.433,43.029 220.103,43.048 C220.493,43.628 220.083,44.404 220.366,45.071 C221.382,44.015 221.004,42.822 221.996,42.289 C221.746,41.031 221.482,40.105 222.45,36.762 z" fill="#222222"/>
      <path d="M215.732,35.276 C215.025,35.728 214.559,35.363 214.012,34.998 C213.863,39.719 213.33,39.824 209.518,40.048 C208.953,40.223 208.589,40.659 208.508,41.243 C212.034,40.221 211.395,40.9 209.561,42.738 L212.861,41.303 C213.931,40.798 213.396,41.677 213.759,42.872 C214.114,42.371 214.591,41.313 215.309,40.478 C214.738,39.352 214.765,38.619 215.732,35.276 z" fill="#222222"/>
    </g>
  </g>
  <defs/>
</svg>
