<?xml version="1.0" encoding="UTF-8"?>
<!DOCTYPE svg PUBLIC "-//W3C//DTD SVG 1.1//EN" "http://www.w3.org/Graphics/SVG/1.1/DTD/svg11.dtd">
<svg version="1.1" xmlns="http://www.w3.org/2000/svg" xmlns:xlink="http://www.w3.org/1999/xlink" x="0px" y="0px" width="270" height="47" viewBox="0, 0, 270, 47">
  <g id="Layer 1">
    <path d="M176.906,16.596 C176.906,16.596 169.344,41.149 187.977,40.383" fill-opacity="0" stroke="#222222" stroke-width="1.2" stroke-linejoin="bevel"/>
    <path d="M180.314,50.981 C169.672,46.641 170.308,56.341 163.508,52.461" fill-opacity="0" stroke="#222222" stroke-width="1.2" stroke-linecap="round"/>
    <g>
      <path d="M17.257,42.523 L26.112,42.523 L16.581,23.574 L25.773,11.956 L16.186,11.956 L8.234,22.333 L8.234,0.564 L0,0.564 L0,42.523 L8.234,42.523 L8.234,33.105 L10.997,29.89 z" fill="#222222"/>
      <path d="M28.932,7.783 L37.053,7.783 L37.053,0 L28.932,0 z M28.932,42.523 L37.166,42.523 L37.166,11.956 L28.932,11.956 z" fill="#222222"/>
      <path d="M70.891,42.523 L78.674,11.956 L70.778,11.956 L67.056,28.255 L63.447,11.956 L55.946,11.956 L52.167,28.311 L48.614,11.956 L40.662,11.956 L48.501,42.523 L55.833,42.523 L59.668,26.055 L63.559,42.523 z" fill="#222222"/>
      <path d="M82.227,7.783 L90.348,7.783 L90.348,0 L82.227,0 z M82.227,42.523 L90.461,42.523 L90.461,11.956 L82.227,11.956 z" fill="#222222"/>
      <path d="M115.445,42.523 L122.607,42.523 L122.607,0.564 L114.317,0.564 L114.317,13.874 Q112.963,12.746 111.187,12.069 Q109.41,11.392 107.662,11.392 Q102.361,11.392 98.808,15.791 Q95.367,20.134 95.367,26.507 Q95.367,34.007 98.582,38.463 Q101.853,43.087 107.718,43.087 Q109.918,43.087 111.723,42.27 Q113.527,41.452 115.163,40.042 z M114.317,20.416 L114.317,33.951 Q113.189,34.966 112.174,35.587 Q111.159,36.207 109.579,36.207 Q107.718,36.207 106.562,35.361 Q105.406,34.515 104.729,33.218 Q104.053,31.921 103.827,30.313 Q103.601,28.706 103.601,27.24 Q103.601,25.773 103.827,24.194 Q104.053,22.615 104.729,21.29 Q105.406,19.965 106.562,19.119 Q107.718,18.273 109.579,18.273 Q110.877,18.273 112.117,18.893 Q113.358,19.513 114.317,20.416 z" fill="#222222"/>
      <path d="M146.745,41.621 Q148.324,40.888 149.706,39.619 Q151.088,38.35 152.441,36.32 L146.35,32.485 Q145.11,34.12 143.671,35.164 Q142.233,36.207 140.09,36.207 Q138.398,36.207 137.383,35.587 Q136.368,34.966 135.776,33.951 Q135.184,32.936 134.93,31.639 Q134.676,30.342 134.507,28.988 L152.216,28.988 L152.216,25.04 Q152.216,22.051 151.172,19.626 Q150.129,17.201 148.437,15.284 Q144.94,11.392 139.583,11.392 Q136.086,11.392 133.576,12.689 Q131.067,13.986 129.431,16.158 Q127.796,18.329 127.034,21.205 Q126.273,24.082 126.273,27.24 Q126.273,30.342 127.034,33.19 Q127.796,36.038 129.375,38.237 Q130.954,40.437 133.435,41.762 Q135.917,43.087 139.357,43.087 Q143.756,43.087 146.745,41.621 z M143.079,19.288 Q144.32,20.698 144.489,23.01 L134.563,23.01 Q134.733,21.938 135.043,20.98 Q135.353,20.021 135.917,19.316 Q136.481,18.611 137.355,18.216 Q138.229,17.821 139.526,17.821 Q141.782,17.821 143.079,19.288 z" fill="#222222"/>
      <path d="M170.263,42.523 L179.061,11.956 L170.714,11.956 L166.202,30.06 L161.803,11.956 L153.513,11.956 L162.029,42.523 z" fill="#222222"/>
    </g>
    <g>
      <path d="M222.917,29.346 C229.219,17.774 215.361,9.891 205.236,12.358 C201.182,13.223 195.84,16.765 194.328,19.072 C193.407,20.553 193.562,21.415 193.246,24.095 C193.09,27.118 189.45,33.228 189.865,36.158 C189.902,36.417 189.896,36.327 190.035,36.394 C190.396,32.837 193.718,26.885 198.296,25.494 C205.304,23.932 208.791,27.192 208.856,30.61 C208.994,32.169 208.812,33.514 209.679,34.17 C210.761,34.989 211.933,33.783 212.793,33.376 C213.654,32.969 214.253,33.256 214.465,33.408 C215.236,33.959 214.796,35.247 217.084,35.337 C218.312,35.385 218.585,33.808 219.701,32.533 C220.551,31.561 221.979,30.879 222.917,29.346 z" fill="#222222"/>
      <path d="M217.589,35.191 C216.92,35.337 216.327,35.238 215.81,34.893 C215.589,38.611 215.197,39.078 211.715,40.402 C211.028,40.779 210.875,41.221 210.799,41.773 C212.842,40.768 213.422,40.699 213.903,40.914 C213.478,41.449 213.072,42.148 212.907,43.087 C214.327,42.137 214.737,41.114 215.37,41.131 C215.738,41.68 215.351,42.413 215.619,43.044 C216.579,42.045 216.222,40.918 217.159,40.414 C216.923,39.225 216.674,38.35 217.589,35.191 z" fill="#222222"/>
      <path d="M211.239,33.786 C210.57,34.213 210.13,33.868 209.613,33.523 C209.472,37.985 208.969,38.085 205.365,38.296 C204.831,38.462 204.488,38.873 204.411,39.425 C207.744,38.46 207.139,39.101 205.407,40.838 L208.525,39.482 C209.537,39.005 209.031,39.836 209.374,40.965 C209.71,40.492 210.16,39.492 210.839,38.703 C210.3,37.638 210.324,36.946 211.239,33.786 z" fill="#222222"/>
    </g>
    <path d="M188.305,37.028 L196.283,39.216 L187.968,46.521 L176.119,42.683 L188.305,37.028 z" fill="#222222"/>
    <path d="M188.566,37.728 L189.273,37.93 L179.237,43.08 L178.155,42.718 L188.566,37.728 z" fill="#FFFFFF"/>
    <path d="M190.215,38.08 L191.175,38.349 L181.607,43.728 L180.496,43.358 L190.215,38.08 z" fill="#FFFFFF"/>
    <path d="M191.873,38.543 L192.833,38.837 L183.827,44.489 L182.683,44.119 L191.873,38.543 z" fill="#FFFFFF"/>
    <path d="M193.446,39.097 L194.338,39.324 L186.602,45.117 L185.445,44.633 L193.446,39.097 z" fill="#FFFFFF"/>
    <path d="M188.457,37.314 L195.088,39.199 L194.338,39.883 L187.477,37.805 L188.457,37.314 z" fill="#222222"/>
    <path d="M185.635,38.543 L193.084,40.799 L192.598,41.197 L185.108,38.924 L185.635,38.543 z" fill="#222222"/>
    <path d="M178.414,42.023 L187.885,45.102 L187.043,45.898 L177.213,42.902 L178.414,42.023 z" fill="#222222"/>
    <path d="M181.104,40.649 L187.885,42.664 L187.177,43.087 L180.395,41.057 L181.104,40.649 z" fill="#222222"/>
    <path d="M183.272,39.44 L189.832,41.429 L189.155,41.817 L182.859,39.914 L183.272,39.44 z" fill="#222222"/>
  </g>
  <defs/>
</svg>
