<?xml version="1.0" encoding="UTF-8"?>
<!DOCTYPE svg PUBLIC "-//W3C//DTD SVG 1.1//EN" "http://www.w3.org/Graphics/SVG/1.1/DTD/svg11.dtd">
<svg version="1.1" xmlns="http://www.w3.org/2000/svg" xmlns:xlink="http://www.w3.org/1999/xlink" x="0px" y="0px" width="270" height="40" viewBox="0, 0, 270, 40">
  <g id="Layer 1">
    <g>
      <path d="M16.021,39.476 L24.241,39.476 L15.393,21.885 L23.927,11.099 L15.026,11.099 L7.644,20.733 L7.644,0.524 L-0,0.524 L-0,39.476 L7.644,39.476 L7.644,30.733 L10.209,27.749 z" fill="#222222"/>
      <path d="M26.859,7.225 L34.398,7.225 L34.398,0 L26.859,0 z M26.859,39.476 L34.503,39.476 L34.503,11.099 L26.859,11.099 z" fill="#222222"/>
      <path d="M65.812,39.476 L73.037,11.099 L65.707,11.099 L62.251,26.23 L58.901,11.099 L51.937,11.099 L48.429,26.283 L45.131,11.099 L37.749,11.099 L45.026,39.476 L51.832,39.476 L55.393,24.188 L59.005,39.476 z" fill="#222222"/>
      <path d="M76.335,7.225 L83.874,7.225 L83.874,0 L76.335,0 z M76.335,39.476 L83.979,39.476 L83.979,11.099 L76.335,11.099 z" fill="#222222"/>
      <path d="M107.173,39.476 L113.822,39.476 L113.822,0.524 L106.126,0.524 L106.126,12.88 Q104.869,11.832 103.22,11.204 Q101.571,10.576 99.948,10.576 Q95.026,10.576 91.728,14.66 Q88.534,18.691 88.534,24.607 Q88.534,31.571 91.518,35.707 Q94.555,40 100,40 Q102.042,40 103.717,39.241 Q105.393,38.482 106.911,37.173 z M106.126,18.953 L106.126,31.518 Q105.079,32.461 104.136,33.037 Q103.194,33.613 101.728,33.613 Q100,33.613 98.927,32.827 Q97.853,32.042 97.225,30.838 Q96.597,29.634 96.387,28.141 Q96.178,26.649 96.178,25.288 Q96.178,23.927 96.387,22.461 Q96.597,20.995 97.225,19.764 Q97.853,18.534 98.927,17.749 Q100,16.963 101.728,16.963 Q102.932,16.963 104.084,17.539 Q105.236,18.115 106.126,18.953 z" fill="#222222"/>
      <path d="M136.23,38.639 Q137.696,37.958 138.979,36.78 Q140.262,35.602 141.518,33.717 L135.864,30.157 Q134.712,31.675 133.377,32.644 Q132.042,33.613 130.052,33.613 Q128.482,33.613 127.539,33.037 Q126.597,32.461 126.047,31.518 Q125.497,30.576 125.262,29.372 Q125.026,28.168 124.869,26.911 L141.309,26.911 L141.309,23.246 Q141.309,20.471 140.34,18.22 Q139.372,15.969 137.801,14.188 Q134.555,10.576 129.581,10.576 Q126.335,10.576 124.005,11.78 Q121.675,12.984 120.157,15 Q118.639,17.016 117.932,19.686 Q117.225,22.356 117.225,25.288 Q117.225,28.168 117.932,30.812 Q118.639,33.455 120.105,35.497 Q121.571,37.539 123.874,38.77 Q126.178,40 129.372,40 Q133.456,40 136.23,38.639 z M132.827,17.906 Q133.979,19.215 134.136,21.361 L124.922,21.361 Q125.079,20.366 125.367,19.476 Q125.654,18.586 126.178,17.932 Q126.702,17.277 127.513,16.911 Q128.325,16.544 129.529,16.544 Q131.623,16.544 132.827,17.906 z" fill="#222222"/>
      <path d="M158.063,39.476 L166.23,11.099 L158.482,11.099 L154.293,27.906 L150.209,11.099 L142.513,11.099 L150.419,39.476 z" fill="#222222"/>
    </g>
    <g>
      <path d="M206.945,27.243 C212.795,16.501 199.929,9.182 190.531,11.473 C186.767,12.276 181.808,15.564 180.404,17.705 C179.549,19.081 179.693,19.881 179.4,22.369 C179.254,25.175 175.875,30.847 176.261,33.567 C176.295,33.808 176.29,33.724 176.418,33.786 C176.754,30.484 179.837,24.958 184.088,23.668 C190.594,22.217 193.831,25.244 193.891,28.416 C194.019,29.864 193.85,31.113 194.655,31.722 C195.659,32.482 196.748,31.362 197.546,30.985 C198.345,30.607 198.902,30.873 199.098,31.014 C199.813,31.526 199.406,32.721 201.53,32.805 C202.669,32.849 202.923,31.385 203.959,30.202 C204.748,29.3 206.073,28.666 206.945,27.243 z" fill="#222222"/>
      <path d="M201.998,32.669 C201.377,32.805 200.826,32.713 200.347,32.393 C200.141,35.845 199.778,36.278 196.545,37.508 C195.908,37.857 195.766,38.268 195.694,38.78 C197.591,37.846 198.13,37.783 198.577,37.983 C198.181,38.479 197.805,39.128 197.652,40 C198.97,39.118 199.35,38.168 199.938,38.184 C200.28,38.693 199.921,39.374 200.169,39.96 C201.061,39.033 200.729,37.986 201.599,37.518 C201.38,36.415 201.149,35.602 201.998,32.669 z" fill="#222222"/>
      <path d="M196.103,31.365 C195.482,31.762 195.074,31.441 194.594,31.121 C194.463,35.263 193.996,35.356 190.65,35.552 C190.155,35.706 189.836,36.088 189.765,36.601 C192.858,35.704 192.297,36.299 190.689,37.912 L193.584,36.653 C194.523,36.21 194.054,36.982 194.372,38.03 C194.684,37.59 195.102,36.662 195.732,35.929 C195.231,34.941 195.254,34.298 196.103,31.365 z" fill="#222222"/>
    </g>
  </g>
  <defs/>
</svg>
